<svg width="68" height="71" viewBox="0 0 68 71" fill="none" xmlns="http://www.w3.org/2000/svg">
    <path d="M28.3466 70.4091C22.7102 70.3504 17.7931 68.8239 13.5952 65.8295C9.39725 62.8059 6.13873 58.652 3.8196 53.3679C1.50047 48.0838 0.34091 42.0218 0.34091 35.1818C0.34091 28.4006 1.55919 22.4119 3.99574 17.2159C6.46165 11.9905 9.85227 7.89536 14.1676 4.93039C18.483 1.96543 23.4441 0.482955 29.0511 0.482955C33.161 0.482955 36.7131 1.27557 39.7074 2.86079C42.7017 4.41666 45.241 6.58901 47.3253 9.37784C49.4389 12.1667 51.215 15.3665 52.6534 18.9773H56.7045L58.2898 35.0057L67.0966 69H57.4091L49.1307 35.0057C48.6903 32.8627 48.0152 30.3674 47.1051 27.5199C46.1951 24.6723 44.9768 21.8982 43.4503 19.1974C41.9238 16.4967 39.9716 14.2656 37.5938 12.5043C35.2453 10.7135 32.3977 9.81818 29.0511 9.81818C25.4697 9.81818 22.2992 10.9044 19.5398 13.0767C16.7803 15.249 14.6226 18.258 13.0668 22.1037C11.5109 25.9493 10.733 30.3674 10.733 35.358C10.733 40.2311 11.4669 44.6198 12.9347 48.5241C14.4025 52.3991 16.4574 55.4669 19.0994 57.7273C21.7415 59.9583 24.8239 61.0739 28.3466 61.0739C31.6051 61.0739 34.438 60.1785 36.8452 58.3878C39.2524 56.5677 41.2779 54.2926 42.9219 51.5625C44.5658 48.803 45.8868 45.9702 46.8849 43.0639C47.9124 40.1283 48.661 37.5597 49.1307 35.358L56.5284 1.36363H66.2159L58.2898 35.358L56.7045 51.9148H53.1818C51.6553 55.5549 49.7472 58.7841 47.4574 61.6023C45.197 64.3911 42.4815 66.5634 39.3111 68.1193C36.17 69.6752 32.5152 70.4384 28.3466 70.4091Z" fill="#0FC2C0"/>
</svg>