<svg width="328" height="129" viewBox="0 0 328 129" fill="none" xmlns="http://www.w3.org/2000/svg">
    <path d="M28.3466 95.4091C22.7102 95.3504 17.7931 93.8239 13.5952 90.8295C9.39725 87.8059 6.13873 83.652 3.8196 78.3679C1.50047 73.0838 0.34091 67.0218 0.34091 60.1818C0.34091 53.4006 1.55919 47.4119 3.99574 42.2159C6.46165 36.9905 9.85227 32.8954 14.1676 29.9304C18.483 26.9654 23.4441 25.483 29.0511 25.483C33.161 25.483 36.7131 26.2756 39.7074 27.8608C42.7017 29.4167 45.241 31.589 47.3253 34.3778C49.4389 37.1667 51.215 40.3665 52.6534 43.9773H56.7045L58.2898 60.0057L67.0966 94H57.4091L49.1307 60.0057C48.6903 57.8627 48.0152 55.3674 47.1051 52.5199C46.1951 49.6723 44.9768 46.8982 43.4503 44.1974C41.9238 41.4967 39.9716 39.2656 37.5938 37.5043C35.2453 35.7135 32.3977 34.8182 29.0511 34.8182C25.4697 34.8182 22.2992 35.9044 19.5398 38.0767C16.7803 40.249 14.6226 43.258 13.0668 47.1037C11.5109 50.9493 10.733 55.3674 10.733 60.358C10.733 65.2311 11.4669 69.6198 12.9347 73.5241C14.4025 77.3991 16.4574 80.4669 19.0994 82.7273C21.7415 84.9583 24.8239 86.0739 28.3466 86.0739C31.6051 86.0739 34.438 85.1785 36.8452 83.3878C39.2524 81.5677 41.2779 79.2926 42.9219 76.5625C44.5658 73.803 45.8868 70.9702 46.8849 68.0639C47.9124 65.1283 48.661 62.5597 49.1307 60.358L56.5284 26.3636H66.2159L58.2898 60.358L56.7045 76.9148H53.1818C51.6553 80.5549 49.7472 83.7841 47.4574 86.6023C45.197 89.3911 42.4815 91.5634 39.3111 93.1193C36.17 94.6752 32.5152 95.4384 28.3466 95.4091Z" fill="#0FC2C0"/>
    <path d="M95.784 0.559998V94H84.136V0.559998H95.784ZM172.155 86.064C166.011 92.208 158.8 95.28 150.523 95.28C142.246 95.28 135.078 92.1227 129.019 85.808H128.635V123.44H116.987V28.72H127.227L128.635 36.912H129.019C135.078 30.5973 142.246 27.44 150.523 27.44C158.8 27.44 166.011 30.512 172.155 36.656C178.384 42.8 181.499 51.0347 181.499 61.36C181.499 71.6853 178.384 79.92 172.155 86.064ZM148.859 38.32C141.179 38.32 134.438 41.52 128.635 47.92V74.8C134.438 81.2 141.179 84.4 148.859 84.4C155.174 84.4 160.251 82.3947 164.091 78.384C167.931 74.3733 169.851 68.6987 169.851 61.36C169.851 54.0213 167.931 48.3467 164.091 44.336C160.251 40.3253 155.174 38.32 148.859 38.32ZM233.193 27.44C240.276 27.44 245.865 29.8293 249.961 34.608C254.057 39.3867 256.105 45.36 256.105 52.528V94H244.457V53.808C244.457 43.3973 239.764 38.192 230.377 38.192C222.953 38.192 215.956 42.288 209.385 50.48V94H197.737V0.559998H209.385V38.832H209.769C216.681 31.2373 224.489 27.44 233.193 27.44ZM276.889 32.304C284.313 29.0613 292.249 27.44 300.697 27.44C309.23 27.44 315.758 29.9147 320.281 34.864C324.804 39.8133 327.065 45.744 327.065 52.656V94H316.825L315.417 85.808H315.033C308.889 92.1227 300.996 95.28 291.353 95.28C285.55 95.28 280.601 93.5307 276.505 90.032C272.494 86.5333 270.489 81.7547 270.489 75.696C270.489 69.6373 272.964 64.7307 277.913 60.976C282.948 57.2213 290.286 55.344 299.929 55.344H315.417V54.32C315.417 48.688 314.009 44.6347 311.193 42.16C308.462 39.6853 303.684 38.448 296.857 38.448C290.03 38.448 283.63 39.8987 277.657 42.8H276.889V32.304ZM315.417 75.44V64.688H301.465C288.58 64.688 282.137 68.1013 282.137 74.928C282.137 81.6693 286.66 85.04 295.705 85.04C299.46 85.04 303.086 84.144 306.585 82.352C310.084 80.4747 313.028 78.1707 315.417 75.44Z" fill="black"/>
    <path d="M158.392 103.852V106.062H152.126V122H149.76V106.062H143.494V103.852H158.392ZM168.255 108.48H168.463V110.742H168.255C167.232 110.742 166.279 110.941 165.395 111.34C164.511 111.739 163.817 112.293 163.315 113.004V122H160.949V108.74H163.029L163.315 110.404V110.794H163.367C164.615 109.251 166.244 108.48 168.255 108.48ZM171.237 109.468C172.745 108.809 174.357 108.48 176.073 108.48C177.807 108.48 179.133 108.983 180.051 109.988C180.97 110.993 181.429 112.198 181.429 113.602V122H179.349L179.063 120.336H178.985C177.737 121.619 176.134 122.26 174.175 122.26C172.997 122.26 171.991 121.905 171.159 121.194C170.345 120.483 169.937 119.513 169.937 118.282C169.937 117.051 170.44 116.055 171.445 115.292C172.468 114.529 173.959 114.148 175.917 114.148H179.063V113.94C179.063 112.796 178.777 111.973 178.205 111.47C177.651 110.967 176.68 110.716 175.293 110.716C173.907 110.716 172.607 111.011 171.393 111.6H171.237V109.468ZM179.063 118.23V116.046H176.229C173.612 116.046 172.303 116.739 172.303 118.126C172.303 119.495 173.222 120.18 175.059 120.18C175.822 120.18 176.559 119.998 177.269 119.634C177.98 119.253 178.578 118.785 179.063 118.23ZM186.491 110.352C187.756 109.104 189.23 108.48 190.911 108.48C192.592 108.48 194.048 109.121 195.279 110.404H195.357V103.02H197.723V122H195.643L195.357 120.336H195.279C194.048 121.619 192.592 122.26 190.911 122.26C189.23 122.26 187.756 121.636 186.491 120.388C185.243 119.14 184.619 117.467 184.619 115.37C184.619 113.273 185.243 111.6 186.491 110.352ZM191.249 120.05C192.809 120.05 194.178 119.4 195.357 118.1V112.64C194.178 111.34 192.809 110.69 191.249 110.69C189.966 110.69 188.935 111.097 188.155 111.912C187.375 112.727 186.985 113.879 186.985 115.37C186.985 116.861 187.375 118.013 188.155 118.828C188.935 119.643 189.966 120.05 191.249 120.05ZM201.931 122V108.74H204.297V122H201.931ZM204.401 103.384V105.932H201.853V103.384H204.401ZM215.707 108.48C217.146 108.48 218.281 108.965 219.113 109.936C219.945 110.907 220.361 112.12 220.361 113.576V122H217.995V113.836C217.995 111.721 217.042 110.664 215.135 110.664C213.627 110.664 212.206 111.496 210.871 113.16V122H208.505V108.74H210.585L210.871 110.404V110.794H210.923C212.327 109.251 213.922 108.48 215.707 108.48ZM234.567 108.74H236.647V121.428C236.647 123.612 236.118 125.293 235.061 126.472C234.004 127.651 232.47 128.24 230.459 128.24C228.466 128.24 226.646 127.798 224.999 126.914V124.574H225.129C226.602 125.527 228.327 126.004 230.303 126.004C232.955 126.004 234.281 124.591 234.281 121.766V120.076H234.203C233.007 121.359 231.577 122 229.913 122C228.249 122 226.767 121.411 225.467 120.232C224.184 119.036 223.543 117.372 223.543 115.24C223.543 113.108 224.184 111.453 225.467 110.274C226.767 109.078 228.249 108.48 229.913 108.48C231.577 108.48 233.007 109.121 234.203 110.404H234.281L234.567 108.74ZM234.281 117.918V112.562C233.033 111.279 231.733 110.638 230.381 110.638C229.046 110.638 227.963 111.037 227.131 111.834C226.316 112.614 225.909 113.749 225.909 115.24C225.909 116.731 226.316 117.875 227.131 118.672C227.963 119.452 229.046 119.842 230.381 119.842C231.733 119.842 233.033 119.201 234.281 117.918ZM262.039 107.622C260.254 106.443 258.287 105.854 256.137 105.854C253.988 105.854 252.307 106.513 251.093 107.83C249.88 109.147 249.273 110.846 249.273 112.926C249.273 115.006 249.88 116.705 251.093 118.022C252.307 119.339 253.988 119.998 256.137 119.998C258.287 119.998 260.254 119.409 262.039 118.23H262.169V120.57C260.297 121.697 258.243 122.26 256.007 122.26C253.355 122.26 251.171 121.419 249.455 119.738C247.757 118.039 246.907 115.769 246.907 112.926C246.907 110.083 247.757 107.821 249.455 106.14C251.171 104.441 253.355 103.592 256.007 103.592C258.243 103.592 260.297 104.155 262.169 105.282V107.622H262.039ZM267.583 106.192C269.23 104.459 271.423 103.592 274.161 103.592C276.9 103.592 279.093 104.459 280.739 106.192C282.386 107.925 283.235 110.17 283.287 112.926C283.235 115.682 282.386 117.927 280.739 119.66C279.093 121.393 276.9 122.26 274.161 122.26C271.423 122.26 269.23 121.393 267.583 119.66C265.937 117.927 265.087 115.682 265.035 112.926C265.087 110.17 265.937 107.925 267.583 106.192ZM267.401 112.926C267.401 114.989 267.999 116.696 269.195 118.048C270.409 119.383 272.055 120.05 274.135 120.05C276.233 120.05 277.888 119.383 279.101 118.048C280.315 116.696 280.921 114.989 280.921 112.926C280.921 110.863 280.315 109.165 279.101 107.83C277.888 106.478 276.233 105.802 274.135 105.802C272.055 105.802 270.409 106.478 269.195 107.83C267.999 109.165 267.401 110.863 267.401 112.926ZM301.216 119.764V120.388C301.216 120.943 301.363 121.445 301.658 121.896V122H299.214C298.971 121.601 298.85 121.133 298.85 120.596V120.18C298.85 118.585 298.685 117.493 298.356 116.904C298.2 116.592 297.992 116.263 297.732 115.916C297.194 115.257 296.267 114.928 294.95 114.928H289.568V122H287.202V103.852H294.43C296.787 103.852 298.555 104.337 299.734 105.308C300.912 106.279 301.502 107.553 301.502 109.13C301.502 110.187 301.216 111.141 300.644 111.99C300.072 112.822 299.24 113.429 298.148 113.81V113.862C300.193 114.399 301.216 116.367 301.216 119.764ZM294.274 112.692C295.764 112.692 296.943 112.397 297.81 111.808C298.694 111.219 299.136 110.395 299.136 109.338C299.136 108.281 298.754 107.475 297.992 106.92C297.246 106.365 295.964 106.088 294.144 106.088H289.568V112.692H294.274ZM312.809 103.852C314.057 103.852 315.149 104.025 316.085 104.372C317.021 104.701 317.741 105.152 318.243 105.724C318.763 106.296 319.145 106.911 319.387 107.57C319.63 108.211 319.751 108.896 319.751 109.624C319.751 110.352 319.63 111.045 319.387 111.704C319.145 112.345 318.763 112.952 318.243 113.524C317.741 114.096 317.021 114.555 316.085 114.902C315.149 115.231 314.057 115.396 312.809 115.396H308.077V122H305.711V103.852H312.809ZM312.575 113.16C314.343 113.16 315.583 112.822 316.293 112.146C317.021 111.47 317.385 110.629 317.385 109.624C317.385 108.619 317.021 107.778 316.293 107.102C315.583 106.426 314.343 106.088 312.575 106.088H308.077V113.16H312.575ZM322.506 122V119.088H325.418V122H322.506Z" fill="#0FC2C0"/>
</svg>